<svg width="48" height="48" viewBox="0 0 48 48" fill="none" xmlns="http://www.w3.org/2000/svg">
<path d="M27.55 2.19374C26.1937 2.51875 25.125 3.75 24.9625 5.16875L24.9187 5.525L20.6625 5.54375L16.4062 5.5625L15.9687 5.7125C15.1937 5.96875 14.5875 6.325 14.025 6.8625C13.3937 7.45625 13.0187 8.0375 12.7375 8.84375L12.5312 9.4375L12.5125 23.5937C12.5 33.775 12.5187 37.8687 12.5687 38.1687C12.775 39.425 13.8062 40.4875 15.025 40.7125C15.2312 40.75 15.6312 40.7812 15.9187 40.7812H16.4375V41.7062C16.4375 42.8312 16.5062 43.2375 16.7875 43.8187C17.4125 45.0937 18.8562 45.8 20.225 45.5125C21.375 45.2687 22.2875 44.4437 22.625 43.3562C22.7312 43.0187 22.75 42.775 22.75 41.8687V40.7812H30.1562H37.5625V41.7C37.5625 42.8062 37.6562 43.3062 37.9687 43.9C38.2187 44.375 38.725 44.9062 39.1937 45.175C39.5375 45.375 40.3437 45.5938 40.7437 45.5938C41.8562 45.5875 43.0125 44.8875 43.525 43.9062C43.8437 43.3062 43.9375 42.8062 43.9375 41.7V40.7812H44.4562C45.1687 40.7812 45.6375 40.6875 46.1687 40.4312C46.9875 40.0437 47.6875 39.15 47.8687 38.2687C47.9187 38.0312 47.9375 33.7687 47.925 23.625L47.9062 9.3125L47.7562 8.875C47.225 7.3 46.1625 6.2375 44.5937 5.7125L44.1562 5.5625L39.8437 5.53125L35.5312 5.5L35.4937 5.15625C35.3312 3.7 34.3312 2.55 32.9062 2.1875C32.3937 2.05625 28.0937 2.05625 27.55 2.19374ZM44.325 8.05C44.8687 8.31875 45.2125 8.6625 45.4812 9.2125C45.6437 9.54375 45.6562 9.6125 45.6562 10.4062C45.6562 11.1937 45.6437 11.275 45.4875 11.6125C45.2687 12.0687 44.7625 12.5812 44.2812 12.8187L43.9062 13H30.2812H16.6562L16.3 12.8312C15.8 12.6 15.35 12.1625 15.1062 11.6625C14.9125 11.2625 14.9062 11.2312 14.9062 10.4062C14.9062 9.60625 14.9125 9.54375 15.0812 9.2C15.4 8.55625 16.0687 8.00625 16.7312 7.85C16.8687 7.81875 22.7437 7.8 30.4125 7.8L43.85 7.8125L44.325 8.05ZM44.2812 15.0562C44.7625 15.2937 45.2687 15.8062 45.4875 16.2625L45.6562 16.625V20.7187V24.8125L45.4812 25.175C45.2312 25.675 44.7812 26.1187 44.2687 26.3625L43.8437 26.5625L30.4062 26.5812L16.9687 26.6L16.5562 26.4687C16.05 26.3062 15.6062 25.975 15.2937 25.5312C14.8625 24.9062 14.8687 25.0062 14.8875 20.5875L14.9062 16.625L15.0875 16.25C15.3937 15.6312 16 15.1187 16.6875 14.9C16.775 14.875 22.9312 14.8562 30.375 14.8625L43.9062 14.875L44.2812 15.0562ZM18.5687 31.6625C19.1875 31.9625 19.6312 32.4 19.9312 33.025C20.15 33.4875 20.1562 33.5187 20.1562 34.225C20.1562 34.9312 20.15 34.9562 19.925 35.4125C18.6937 37.9 15.0812 37.3875 14.6125 34.6625C14.3812 33.3062 15.2062 31.9625 16.55 31.525C16.8187 31.4375 17.05 31.4125 17.5 31.425C18.0312 31.4375 18.1437 31.4625 18.5687 31.6625ZM44.2562 31.6625C44.875 31.9625 45.3187 32.4 45.6187 33.025C45.8375 33.4875 45.8437 33.5187 45.8437 34.225C45.8437 34.9312 45.8375 34.9562 45.6125 35.4125C45.225 36.2 44.5937 36.725 43.7812 36.9375C41.7062 37.475 39.8062 35.5812 40.3437 33.5125C40.475 33.0062 40.6562 32.6875 41.0187 32.2937C41.6312 31.65 42.2625 31.3937 43.1875 31.425C43.7187 31.4375 43.8312 31.4625 44.2562 31.6625Z" fill="#49C401"/>
<path d="M3.63748 6.125C2.41873 6.39375 1.28748 7.3 0.706226 8.475C0.362476 9.175 0.287476 9.6 0.287476 10.9062C0.287476 12.2375 0.349976 12.5625 0.762476 13.4062C0.968726 13.8312 1.12498 14.0437 1.55623 14.475C2.31248 15.225 3.01248 15.5687 4.14373 15.75L4.37498 15.7875V26.9562V38.1312L3.72498 38.2C3.19373 38.2562 3.01248 38.3 2.68748 38.475C2.03123 38.825 1.53748 39.5125 1.45623 40.2125L1.41873 40.5312H5.09373H8.76248L8.71873 40.2375C8.65623 39.7875 8.35623 39.1937 8.03123 38.8812C7.60623 38.4687 7.16248 38.2687 6.46248 38.1937L5.87498 38.1312V26.9625V15.7937L6.14373 15.75C6.74998 15.6625 7.06248 15.5687 7.59373 15.3125C8.60623 14.8312 9.38748 13.9437 9.77498 12.85C9.95623 12.3375 9.96248 12.2625 9.98748 11.0875C10.0187 9.66875 9.93123 9.175 9.51873 8.34375C9.16873 7.65 8.34373 6.83125 7.62498 6.4875C6.84998 6.1125 6.39998 6.03125 5.11248 6.0375C4.44998 6.0375 3.88123 6.075 3.63748 6.125Z" fill="#49C401"/>
</svg>
